<svg width="40" height="40" viewBox="0 0 40 40" fill="none" xmlns="http://www.w3.org/2000/svg">
<circle cx="20" cy="20" r="19.5" stroke="#F0F0F0"/>
<path fill-rule="evenodd" clip-rule="evenodd" d="M20.4002 28C20.234 28 20.0719 27.9484 19.9362 27.8524C19.693 27.6788 13.9769 23.5523 14.0001 18.397C14.0001 14.8713 16.8713 12 20.4002 12C23.9291 12 26.8004 14.8713 26.8004 18.4002C26.8236 23.5523 21.1075 27.6788 20.8642 27.8524C20.7286 27.9484 20.5665 28 20.4002 28ZM25.2004 18.4034C25.2004 15.7529 23.0475 13.6 20.4002 13.6C17.753 13.6 15.6001 15.7529 15.6001 18.4002C15.5833 21.9539 19.1114 25.1419 20.4002 26.1884C21.6899 25.1419 25.2172 21.9539 25.2004 18.4034ZM23.6003 18.4002C23.6003 20.165 22.1651 21.6003 20.4002 21.6003C18.6354 21.6003 17.2002 20.165 17.2002 18.4002C17.2002 16.6353 18.6354 15.2001 20.4002 15.2001C22.1651 15.2001 23.6003 16.6353 23.6003 18.4002ZM22.0003 18.4002C22.0003 17.5177 21.2827 16.8001 20.4002 16.8001C19.5178 16.8001 18.8002 17.5177 18.8002 18.4002C18.8002 19.2826 19.5178 20.0002 20.4002 20.0002C21.2827 20.0002 22.0003 19.2826 22.0003 18.4002Z" fill="#2E2E2E"/>
</svg>
