<svg width="40" height="40" viewBox="0 0 40 40" fill="none" xmlns="http://www.w3.org/2000/svg">
<g id="Group 5">
<circle id="Ellipse 1" cx="20" cy="20" r="19.5" stroke="#F0F0F0"/>
<path id="Vector" d="M26.4 13H13.6C12.7176 13 12 13.7176 12 14.6V24.2C12 25.0824 12.7176 25.8 13.6 25.8H26.4C27.2824 25.8 28 25.0824 28 24.2V14.6C28 13.7176 27.2824 13 26.4 13ZM26.4 14.6V15.0088L20 19.9872L13.6 15.0096V14.6H26.4ZM13.6 24.2V17.0352L19.5088 21.6312C19.6489 21.7412 19.8219 21.801 20 21.801C20.1781 21.801 20.3511 21.7412 20.4912 21.6312L26.4 17.0352L26.4016 24.2H13.6Z" fill="#2E2E2E"/>
</g>
</svg>
