<svg width="40" height="40" viewBox="0 0 40 40" fill="none" xmlns="http://www.w3.org/2000/svg">
<rect width="40" height="40" rx="20" fill="#82BB31"/>
<path d="M24.3852 20.6651C24.3071 20.5869 24.2143 20.5248 24.1122 20.4825C24.0101 20.4401 23.9006 20.4183 23.79 20.4183C23.6795 20.4183 23.57 20.4401 23.4679 20.4825C23.3657 20.5248 23.273 20.5869 23.1948 20.6651L21.853 22.007C21.2309 21.8218 20.07 21.4009 19.3342 20.6651C18.5985 19.9294 18.1775 18.7685 17.9923 18.1464L19.3342 16.8045C19.4125 16.7264 19.4745 16.6336 19.5169 16.5315C19.5592 16.4294 19.581 16.3199 19.581 16.2093C19.581 16.0988 19.5592 15.9893 19.5169 15.8872C19.4745 15.785 19.4125 15.6923 19.3342 15.6141L15.9669 12.2468C15.8888 12.1686 15.796 12.1065 15.6939 12.0642C15.5917 12.0218 15.4823 12 15.3717 12C15.2612 12 15.1517 12.0218 15.0496 12.0642C14.9474 12.1065 14.8547 12.1686 14.7765 12.2468L12.4935 14.5299C12.1736 14.8498 11.9934 15.2892 12.0002 15.7379C12.0195 16.9367 12.3369 21.1004 15.6184 24.3818C18.8998 27.6633 23.0635 27.9798 24.2631 28H24.2867C24.7312 28 25.1513 27.8249 25.4695 27.5067L27.7525 25.2236C27.8308 25.1455 27.8928 25.0528 27.9352 24.9506C27.9775 24.8485 27.9993 24.739 27.9993 24.6285C27.9993 24.5179 27.9775 24.4084 27.9352 24.3063C27.8928 24.2042 27.8308 24.1114 27.7525 24.0333L24.3852 20.6651ZM24.2783 26.3155C23.2277 26.2978 19.6331 26.0158 16.8087 23.1906C13.9751 20.357 13.7007 16.7498 13.6838 15.7202L15.3717 14.0323L17.5487 16.2093L16.4602 17.2978C16.3613 17.3967 16.2885 17.5187 16.2485 17.6527C16.2085 17.7867 16.2026 17.9286 16.2312 18.0656C16.2514 18.1624 16.7456 20.458 18.143 21.8555C19.5405 23.2529 21.8361 23.7471 21.9329 23.7673C22.0698 23.7967 22.2118 23.7912 22.346 23.7514C22.4802 23.7115 22.6021 23.6385 22.7007 23.5391L23.79 22.4507L25.967 24.6276L24.2783 26.3155Z" fill="white"/>
</svg>
