<svg width="40" height="40" viewBox="0 0 40 40" fill="none" xmlns="http://www.w3.org/2000/svg">
<g id="Group 6">
<circle id="Ellipse 1" cx="20" cy="20" r="19.5" stroke="#F0F0F0"/>
<path id="&#239;&#136;&#178;" d="M21.6434 21.3127C21.9121 20.975 22.0913 20.8062 22.1809 20.8062C22.2705 20.8062 22.6047 20.9578 23.1835 21.261C23.7692 21.5642 24.0792 21.7468 24.1137 21.8088C24.1275 21.8432 24.1344 21.8949 24.1344 21.9638C24.1344 22.1912 24.0758 22.4531 23.9587 22.7494C23.8484 23.0181 23.6038 23.2455 23.2248 23.4315C22.8458 23.6107 22.4944 23.7003 22.1705 23.7003C21.7778 23.7003 21.1232 23.4867 20.2067 23.0594C19.5314 22.7494 18.9457 22.3428 18.4496 21.8398C17.9535 21.3368 17.4436 20.6994 16.9199 19.9276C16.4238 19.1904 16.1792 18.522 16.186 17.9225V17.8398C16.2067 17.2127 16.4617 16.6684 16.9509 16.2067C17.1163 16.0551 17.2954 15.9793 17.4884 15.9793C17.5297 15.9793 17.5917 15.9862 17.6744 16C17.7571 16.0069 17.8226 16.0103 17.8708 16.0103C18.0017 16.0103 18.0913 16.0345 18.1395 16.0827C18.1947 16.124 18.2498 16.2171 18.3049 16.3618C18.36 16.4996 18.4737 16.8028 18.646 17.2713C18.8183 17.7399 18.9044 17.9983 18.9044 18.0465C18.9044 18.1912 18.7838 18.391 18.5426 18.646C18.3084 18.8941 18.1912 19.0525 18.1912 19.1214C18.1912 19.1697 18.2084 19.2214 18.2429 19.2765C18.4772 19.7795 18.8286 20.2515 19.2972 20.6925C19.683 21.0577 20.2033 21.4057 20.8579 21.7364C20.9406 21.7847 21.0164 21.8088 21.0853 21.8088C21.1886 21.8088 21.3747 21.6434 21.6434 21.3127ZM20.0827 26.2842C20.9578 26.2842 21.795 26.112 22.5943 25.7674C23.4005 25.4229 24.093 24.9612 24.6718 24.3824C25.2506 23.8036 25.7123 23.1146 26.0569 22.3152C26.4014 21.509 26.5736 20.6684 26.5736 19.7933C26.5736 18.9182 26.4014 18.081 26.0569 17.2817C25.7123 16.4755 25.2506 15.7829 24.6718 15.2041C24.093 14.6253 23.4005 14.1637 22.5943 13.8191C21.795 13.4746 20.9578 13.3023 20.0827 13.3023C19.2076 13.3023 18.3669 13.4746 17.5607 13.8191C16.7614 14.1637 16.0724 14.6253 15.4935 15.2041C14.9147 15.7829 14.4531 16.4755 14.1085 17.2817C13.764 18.081 13.5917 18.9182 13.5917 19.7933C13.5917 21.1921 14.0052 22.4599 14.832 23.5969L14.0155 26.0052L16.5168 25.2093C17.6055 25.9259 18.7941 26.2842 20.0827 26.2842ZM17.0543 12.6202C18.019 12.2067 19.0284 12 20.0827 12C21.137 12 22.143 12.2067 23.1008 12.6202C24.0655 13.0336 24.8958 13.5883 25.5917 14.2842C26.2877 14.9802 26.8424 15.8105 27.2558 16.7752C27.6693 17.733 27.876 18.739 27.876 19.7933C27.876 20.8475 27.6693 21.857 27.2558 22.8217C26.8424 23.7795 26.2877 24.6064 25.5917 25.3023C24.8958 25.9983 24.0655 26.553 23.1008 26.9664C22.143 27.3798 21.137 27.5866 20.0827 27.5866C18.739 27.5866 17.4815 27.2627 16.3101 26.615L12 28L13.4057 23.814C12.6615 22.5874 12.2894 21.2472 12.2894 19.7933C12.2894 18.739 12.4961 17.733 12.9096 16.7752C13.323 15.8105 13.8777 14.9802 14.5736 14.2842C15.2696 13.5883 16.0965 13.0336 17.0543 12.6202Z" fill="#2E2E2E"/>
</g>
</svg>
